<svg width="48" height="48" viewBox="0 0 48 48" fill="none" xmlns="http://www.w3.org/2000/svg">
<path fill-rule="evenodd" clip-rule="evenodd" d="M23.1372 10.4913C21.7613 9.11546 21.7613 6.8847 23.1372 5.50881C24.0796 4.56644 25.423 4.26951 26.618 4.61803C24.9473 3.33404 22.543 3.4571 21.0128 4.98721C19.3489 6.65115 19.3489 9.34892 21.0128 11.0129C22.5429 12.5429 24.9471 12.666 26.6179 11.3822C25.4228 11.7306 24.0795 11.4337 23.1372 10.4913Z" fill="#F03E58"/>
<path fill-rule="evenodd" clip-rule="evenodd" d="M25.6988 7.99997C25.9387 8.02965 26.1675 8.09402 26.3801 8.18795C26.5374 8.25746 26.6858 8.34315 26.8232 8.44295C27.0296 8.5928 27.2113 8.77446 27.3611 8.98085C27.4609 9.1183 27.5466 9.26671 27.6161 9.42401C27.71 9.63658 27.7744 9.86538 27.8041 10.1053C27.8338 9.86538 27.8981 9.63658 27.9921 9.42401C28.0616 9.26671 28.1473 9.1183 28.2471 8.98085C28.3969 8.77446 28.5786 8.5928 28.785 8.44295C28.9224 8.34315 29.0708 8.25746 29.2281 8.18795C29.4407 8.09402 29.6695 8.02965 29.9094 7.99997C29.6695 7.97029 29.4407 7.90592 29.2281 7.81199C29.0708 7.74248 28.9224 7.65679 28.785 7.55699C28.5786 7.40714 28.3969 7.22548 28.2471 7.01909C28.1473 6.88165 28.0616 6.73323 27.9921 6.57593C27.8981 6.36336 27.8338 6.13456 27.8041 5.89468C27.7744 6.13456 27.71 6.36336 27.6161 6.57593C27.5466 6.73323 27.4609 6.88165 27.3611 7.01909C27.2113 7.22548 27.0296 7.40714 26.8232 7.55699C26.6858 7.65679 26.5374 7.74248 26.3801 7.81199C26.1675 7.90592 25.9387 7.97029 25.6988 7.99997Z" fill="#F03E58"/>
<path fill-rule="evenodd" clip-rule="evenodd" d="M7.00005 6.35986L7.96157 9.7252L10.9616 20.2252L11.3258 21.4999H10.0041L10.0283 27.4999H11V28.4999V30.758V31.2612L10.5959 31.5611L10 32.0032V32.9999H12V25.9999V24.9999H13H15.055C15.5161 20.8283 18.8284 17.516 23 17.0548V13.4999H25V17.0548C29.1717 17.516 32.484 20.8283 32.9451 24.9999H35H36V25.9999V32.9999H38V32.0032L37.4042 31.5611L37 31.2612V30.758V28.4999V27.4999H37.9718L37.996 21.4999H36.6743L37.0385 20.2252L40.0385 9.7252L41 6.35986L41.9616 9.7252L44.9616 20.2252L45.3258 21.4999H44.0041L44.0283 27.4999H45V28.4999V30.758V31.2612L44.5959 31.5611L44 32.0032V39.9999V40.9999H43H39H38H28H27V39.9999V35.9999C27 34.3431 25.6569 32.9999 24 32.9999C22.3432 32.9999 21 34.3431 21 35.9999V39.9999V40.9999H20H10H9.50005H9.00005H5.00005H4.00005V39.9999V32.0032L3.4042 31.5611L3.00005 31.2612V30.758V28.4999V27.4999H3.97181L3.99601 21.4999H2.67432L3.03852 20.2252L6.03852 9.7252L7.00005 6.35986ZM10 38.9999H19V35.9999C19 33.2385 21.2386 30.9999 24 30.9999C26.7615 30.9999 29 33.2385 29 35.9999V38.9999H38V34.9999H35H34V33.9999V26.9999H32H31V25.9999C31 22.1339 27.866 18.9999 24 18.9999C20.1341 18.9999 17 22.1339 17 25.9999V26.9999H16H14V33.9999V34.9999H13H10V38.9999ZM5.32578 19.4999H6.00409L6.00004 20.504L5.96778 28.504L5.96376 29.4999H5.00005V30.2547L5.5959 30.6968L6.00005 30.9967V31.4999V38.9999H8.00005V31.4999V30.9967L8.4042 30.6968L9.00005 30.2547V29.4999H8.03633L8.03231 28.504L8.00005 20.504L7.99601 19.4999H8.67432L7.00005 13.64L5.32578 19.4999ZM39.3258 19.4999H40.0041L40 20.504L39.9678 28.504L39.9638 29.4999H39V30.2547L39.5959 30.6968L40 30.9967V31.4999V38.9999H42V31.4999V30.9967L42.4042 30.6968L43 30.2547V29.4999H42.0363L42.0323 28.504L42.0001 20.504L41.996 19.4999H42.6743L41 13.64L39.3258 19.4999Z" fill="#48484E"/>
</svg>
