<svg width="48" height="48" viewBox="0 0 48 48" fill="none" xmlns="http://www.w3.org/2000/svg">
<path fill-rule="evenodd" clip-rule="evenodd" d="M39 4V6.12602C39.3671 6.22049 39.7137 6.36576 40.0321 6.55388L41.5356 5.05029L42.9499 6.46451L41.4462 7.96813C41.6343 8.28641 41.7795 8.63302 41.874 9H44V11H41.874C41.7795 11.367 41.6343 11.7136 41.4462 12.0319L42.9497 13.5354L41.5355 14.9496L40.032 13.4462C39.7137 13.6343 39.367 13.7795 39 13.874V16H37V13.874C36.633 13.7795 36.2863 13.6343 35.968 13.4461L34.4645 14.9496L33.0503 13.5354L34.5538 12.0319C34.3657 11.7136 34.2205 11.367 34.126 11H32V9H34.126C34.2205 8.63302 34.3657 8.28641 34.5538 7.96813L33.0501 6.46448L34.4643 5.05027L35.9679 6.55388C36.2863 6.36576 36.6329 6.22049 37 6.12602V4H39ZM38 12C39.1046 12 40 11.1046 40 10C40 8.89543 39.1046 8 38 8C36.8954 8 36 8.89543 36 10C36 11.1046 36.8954 12 38 12Z" fill="#F03E58"/>
<path fill-rule="evenodd" clip-rule="evenodd" d="M12.9988 37.6933C13.795 35.9653 14.8696 32.957 15.4655 29.6253C16.0645 26.2766 16.1571 22.7254 15.1131 19.8365L16.9941 19.1567C18.2112 22.5249 18.0594 26.4824 17.4342 29.9775C16.862 33.1769 15.8739 36.0929 15.0513 38.0003L12.9988 37.6933ZM22.9697 34.8332C21.4491 35.8196 19.6266 36.1242 17.9198 35.7483C18.1272 35.1495 18.3328 34.507 18.5288 33.8308C19.6699 34.0357 20.8709 33.8107 21.8813 33.1553C24.0833 31.727 26.9227 31.7311 29.1229 33.1582C30.6683 34.1607 32.6621 34.1624 34.2057 33.1611C36.4122 31.7299 39.2542 31.7299 41.4607 33.1611L42.4504 33.8031C42.2356 34.5055 42.0123 35.1625 41.7918 35.7598L40.3723 34.8391C38.8278 33.8372 36.8386 33.8372 35.2941 34.8391C33.0866 36.2709 30.2402 36.2668 28.0345 34.8361C26.4945 33.8372 24.5079 33.8355 22.9697 34.8332ZM23.9697 30.8332C22.4919 31.7918 20.7289 32.1066 19.064 31.7784C19.2 31.1919 19.3247 30.5899 19.4343 29.9775C19.4438 29.9246 19.4531 29.8715 19.4624 29.8184C20.6231 30.0442 21.8513 29.8234 22.8813 29.1553C25.0833 27.727 27.9227 27.7311 30.1229 29.1582C31.6683 30.1607 33.6621 30.1624 35.2057 29.1611C37.4122 27.7299 40.2542 27.7299 42.4607 29.1611L43.4351 29.7931C43.3032 30.5088 43.1497 31.2087 42.9821 31.8832L41.3723 30.8391C39.8278 29.8372 37.8386 29.8372 36.2941 30.8391C34.0866 32.2709 31.2402 32.2668 29.0345 30.8361C27.4945 29.8372 25.5079 29.8355 23.9697 30.8332Z" fill="#48484E"/>
<path fill-rule="evenodd" clip-rule="evenodd" d="M24.6458 39C19.0368 39 13.5661 39.409 8.29156 40.1862L8 38.2076C13.3716 37.4161 18.9398 37 24.6458 37C29.9953 37 35.2237 37.3657 40.2824 38.0637L40.0091 40.0449C35.0413 39.3595 29.9043 39 24.6458 39Z" fill="#48484E"/>
<path fill-rule="evenodd" clip-rule="evenodd" d="M7.04353 8.79518L4.96738 10.6362L8.99242 12.9601C7.14875 13.21 5.50867 14.4738 4.87749 16.3674L4 18.9998H8.16022C7.09069 20.1514 6.57048 21.7859 6.91101 23.4499L7.46731 26.1684L16.5175 20.9433L25.5677 26.1684L26.124 23.4499C26.4646 21.7859 25.9443 20.1514 24.8748 18.9998H28.2924L27.4149 16.3674C26.848 14.6668 25.4674 13.4741 23.8564 13.0676L28.0678 10.6362L25.9916 8.79518C23.8512 6.89711 20.5626 7.15566 18.7451 9.36492L16.5176 12.0725L14.2901 9.36492C12.4725 7.15566 9.184 6.89711 7.04353 8.79518ZM12.7456 10.6356L14.9159 13.2736C14.6674 13.3784 14.4335 13.5111 14.2182 13.6678L8.37047 10.2916C9.18899 9.56576 10.2856 9.36228 11.2584 9.64955C11.7086 9.78247 12.1322 10.0204 12.4896 10.3604C12.5793 10.4457 12.6648 10.5374 12.7456 10.6356ZM12.8271 15.8944L10.7358 15.1102C10.6168 15.0656 10.4969 15.0289 10.3765 14.9998C9.89706 14.8841 9.41118 14.8899 8.95489 14.9998C7.96873 15.2375 7.1208 15.962 6.77485 16.9998H12.8103C12.787 16.8366 12.7749 16.6697 12.7749 16.5C12.7749 16.2935 12.7928 16.0911 12.8271 15.8944ZM13.844 19.0181L11.3558 19.432C11.2305 19.4529 11.1083 19.4811 10.9895 19.5161C10.5165 19.6556 10.0985 19.9035 9.75837 20.2269C9.02315 20.9258 8.65108 21.9772 8.8704 23.049L14.753 19.6527C14.4165 19.4899 14.11 19.2749 13.844 19.0181ZM18.0487 19.5179L24.1646 23.049C24.384 21.9772 24.0119 20.9258 23.2767 20.2269C22.9365 19.9035 22.5186 19.6556 22.0455 19.5161C21.9268 19.4811 21.8045 19.4529 21.6792 19.432L19.0809 18.9998H18.7246C18.5218 19.1986 18.2949 19.3729 18.0487 19.5179ZM19.7395 16.9998H25.5175C25.1716 15.962 24.3236 15.2375 23.3375 14.9998C22.8812 14.8899 22.3953 14.8841 21.9159 14.9998C21.7955 15.0289 21.6756 15.0656 21.5566 15.1102L19.7057 15.8042C19.7511 16.0291 19.7749 16.2618 19.7749 16.5C19.7749 16.6697 19.7628 16.8366 19.7395 16.9998ZM18.5372 13.8293L24.6647 10.2916C23.8462 9.56576 22.7496 9.36228 21.7767 9.64955C21.3266 9.78247 20.9029 10.0204 20.5456 10.3604C20.4559 10.4457 20.3703 10.5374 20.2896 10.6356L17.9801 13.4428C18.1785 13.5537 18.365 13.6833 18.5372 13.8293ZM17.7749 16.5C17.7749 17.3284 17.1033 18 16.2749 18C15.4465 18 14.7749 17.3284 14.7749 16.5C14.7749 15.6716 15.4465 15 16.2749 15C17.1033 15 17.7749 15.6716 17.7749 16.5Z" fill="#48484E"/>
</svg>
