<svg width="48" height="48" viewBox="0 0 48 48" fill="none" xmlns="http://www.w3.org/2000/svg">
<path fill-rule="evenodd" clip-rule="evenodd" d="M31.7984 17.6158C33.4442 15.9701 33.4442 13.3017 31.7984 11.6559L30.3842 13.0702C31.2489 13.9349 31.2489 15.3369 30.3842 16.2016L28.869 17.7169L30.2832 19.1311L31.7984 17.6158ZM13.9966 27.7015C15.5609 27.154 18.2749 26.6218 21.2127 26.8579C24.141 27.0933 27.215 28.0836 29.6266 30.4952L31.0408 29.081C28.1997 26.2398 24.6235 25.1256 21.373 24.8644C18.132 24.6038 15.1387 25.1828 13.3359 25.8138L13.9966 27.7015ZM37.1522 24.4849C36.7338 24.9034 36.0554 24.9034 35.637 24.4849C35.2186 24.0665 35.2186 23.3881 35.637 22.9697C36.0554 22.5513 36.7338 22.5513 37.1522 22.9697C37.5706 23.3881 37.5706 24.0665 37.1522 24.4849ZM25.788 14.6358C26.2064 15.0542 26.8848 15.0542 27.3032 14.6358C27.7216 14.2174 27.7216 13.539 27.3032 13.1206C26.8848 12.7022 26.2064 12.7022 25.788 13.1206C25.3696 13.539 25.3696 14.2174 25.788 14.6358Z" fill="#F03E58"/>
<path fill-rule="evenodd" clip-rule="evenodd" d="M32.6572 18.4742C34.3029 16.8285 36.9713 16.8285 38.6171 18.4742L37.2028 19.8885C36.3381 19.0237 34.9361 19.0237 34.0714 19.8885L32.6572 18.4742ZM39.4252 29.788L18.212 8.57483L16.6968 10.0901L18.9569 12.3501L9.73684 34.3365C8.69832 36.8129 11.1871 39.3018 13.6636 38.2632L35.6499 29.0432L37.91 31.3033L39.4252 29.788ZM23.4857 21.5545C20.9684 21.3522 18.6154 21.714 17.0093 22.1662L13.8315 29.7439C15.0022 29.4725 16.382 29.2865 17.8177 29.3186C20.0175 29.3678 22.4385 29.9337 24.4094 31.5882L34.1219 27.5152L30.9342 24.3274C28.6967 22.5371 26.0359 21.7595 23.4857 21.5545ZM20.4849 13.8781L17.9647 19.8879C19.5908 19.5721 21.5675 19.3939 23.646 19.561C24.6324 19.6403 25.6489 19.7981 26.6657 20.0589L20.4849 13.8781ZM11.5812 35.1099C11.2351 35.9354 12.0647 36.765 12.8901 36.4188L22.2467 32.4951C20.8988 31.6836 19.333 31.353 17.773 31.3181C15.8465 31.2751 14.0204 31.6879 12.8384 32.1122L11.5812 35.1099Z" fill="#48484E"/>
</svg>
