<svg width="48" height="48" viewBox="0 0 48 48" fill="none" xmlns="http://www.w3.org/2000/svg">
<path fill-rule="evenodd" clip-rule="evenodd" d="M31 6V8H34C37.3137 8 40 10.6863 40 14V34C40 37.3137 37.3137 40 34 40H14C10.6863 40 8 37.3137 8 34V14C8 10.6863 10.6863 8 14 8H17V6H19V8H29V6H31ZM17 10V12L19 12V10H29V12L31 12V10H34C36.2091 10 38 11.7909 38 14V15H10V14C10 11.7909 11.7909 10 14 10H17ZM10 17V34C10 36.2091 11.7909 38 14 38H34C36.2091 38 38 36.2091 38 34V17H10ZM19 25L19 27L17 27L17 25L19 25ZM19 23L19 21L17 21L17 23L19 23ZM19 29L19 31L17 31L17 29L19 29ZM25 27L25 25L23 25L23 27L25 27ZM25 21L25 23L23 23L23 21L25 21ZM25 31L25 29L23 29L23 31L25 31ZM31 25L31 27L29 27L29 25L31 25ZM31 23L31 21L29 21L29 23L31 23Z" fill="#48484E"/>
<path fill-rule="evenodd" clip-rule="evenodd" d="M33.0001 26.2795V32.9412H37.1625L28.0001 43.7206V37.0589H23.8376L33.0001 26.2795ZM28.1625 35.0589H30.0001V38.2795L32.8376 34.9412H31.0001V31.7206L28.1625 35.0589Z" fill="#F03E58"/>
</svg>
