<svg width="48" height="48" viewBox="0 0 48 48" fill="none" xmlns="http://www.w3.org/2000/svg">
<path fill-rule="evenodd" clip-rule="evenodd" d="M12.7072 5.29297L11.7072 4.29297L10.293 5.70718L11.293 6.70718C11.4547 6.86894 11.4547 7.13121 11.293 7.29297C10.3502 8.23578 10.3502 9.76437 11.293 10.7072L12.293 11.7072L13.7072 10.293L12.7072 9.29297C12.5454 9.13121 12.5454 8.86894 12.7072 8.70718C13.65 7.76437 13.65 6.23578 12.7072 5.29297ZM43.1004 22.2L24.0004 7.875L15 14.6253V12H9V19.1253L4.90039 22.2L7.3901 25.5196C7.14181 25.9564 7 26.4616 7 27C7 28.0435 7.53276 28.9625 8.34111 29.5C7.53276 30.0375 7 30.9565 7 32C7 33.0435 7.53276 33.9625 8.34111 34.5C7.53276 35.0375 7 35.9565 7 37C7 38.6569 8.34315 40 10 40H38C39.6569 40 41 38.6569 41 37C41 35.9565 40.4672 35.0375 39.6589 34.5C40.4672 33.9625 41 33.0435 41 32C41 30.9565 40.4672 30.0375 39.6589 29.5C40.4672 28.9625 41 28.0435 41 27C41 26.4619 40.8583 25.9569 40.6102 25.5202L43.1004 22.2ZM13 14V16.1253L11 17.6253V14H13ZM35 37C35 37.3506 35.0602 37.6872 35.1707 38H12.8293C12.9398 37.6872 13 37.3506 13 37C13 36.2316 12.7111 35.5308 12.2361 35H19V33H12.8293C12.9398 32.6872 13 32.3506 13 32C13 31.2316 12.7111 30.5308 12.2361 30H19V28H12.8293C12.9398 27.6872 13 27.3506 13 27C13 26.2316 12.7111 25.5308 12.2361 25L35.7639 25C35.2889 25.5308 35 26.2316 35 27C35 27.3506 35.0602 27.6872 35.1707 28H29V30H35.7639C35.2889 30.5308 35 31.2316 35 32C35 32.3506 35.0602 32.6872 35.1707 33H29V35H35.7639C35.2889 35.5308 35 36.2316 35 37ZM35.8337 23L26.9217 16.316C26.9729 16.5357 27 16.7647 27 17C27 18.6569 25.6569 20 24 20C22.3431 20 21 18.6569 21 17C21 16.7649 21.027 16.5362 21.0782 16.3167L12.1671 23L35.8337 23ZM11 37C11 37.5523 10.5523 38 10 38C9.44772 38 9 37.5523 9 37C9 36.4477 9.44772 36 10 36C10.5523 36 11 36.4477 11 37ZM39 37C39 37.5523 38.5523 38 38 38C37.4477 38 37 37.5523 37 37C37 36.4477 37.4477 36 38 36C38.5523 36 39 36.4477 39 37ZM40.3004 22.6L39.7004 23.4L24.0004 11.625L8.30039 23.4L7.70039 22.6L24.0004 10.375L40.3004 22.6ZM37 27C37 26.4477 37.4477 26 38 26C38.5523 26 39 26.4477 39 27C39 27.5523 38.5523 28 38 28C37.4477 28 37 27.5523 37 27ZM10 26C9.44772 26 9 26.4477 9 27C9 27.5523 9.44772 28 10 28C10.5523 28 11 27.5523 11 27C11 26.4477 10.5523 26 10 26ZM23 17C23 16.4477 23.4477 16 24 16C24.5523 16 25 16.4477 25 17C25 17.5523 24.5523 18 24 18C23.4477 18 23 17.5523 23 17ZM38 31C37.4477 31 37 31.4477 37 32C37 32.5523 37.4477 33 38 33C38.5523 33 39 32.5523 39 32C39 31.4477 38.5523 31 38 31ZM9 32C9 31.4477 9.44772 31 10 31C10.5523 31 11 31.4477 11 32C11 32.5523 10.5523 33 10 33C9.44772 33 9 32.5523 9 32Z" fill="#48484E"/>
<path fill-rule="evenodd" clip-rule="evenodd" d="M30 40H18V31C18 27.6863 20.6863 25 24 25C27.3137 25 30 27.6863 30 31V40ZM24 27C21.7909 27 20 28.7909 20 31V38H28V31C28 28.7909 26.2091 27 24 27Z" fill="#F03E58"/>
</svg>
