<svg width="48" height="48" viewBox="0 0 48 48" fill="none" xmlns="http://www.w3.org/2000/svg">
<path fill-rule="evenodd" clip-rule="evenodd" d="M21 8H21.9286C25.045 8 27.5714 10.5264 27.5714 13.6429V14H33.0001V13.6429C33.0001 11.631 31.3692 10 29.3573 10H28.4287V8H29.3573C32.4737 8 35.0001 10.5264 35.0001 13.6429V27H33.0001V24H27.5714V27H25.5714V13.6429C25.5714 11.631 23.9405 10 21.9286 10H21V8ZM27.5714 22H33.0001V20H27.5714V22ZM33.0001 16V18H27.5714V16H33.0001Z" fill="#F03E58"/>
<path fill-rule="evenodd" clip-rule="evenodd" d="M8 19C5.23858 19 3 21.2386 3 24V44H5V24C5 22.3431 6.34315 21 8 21H23V19H8ZM37.5 21H40C41.6569 21 43 22.3431 43 24V44H45V24C45 21.2386 42.7614 19 40 19H37.5V21ZM12.1101 29.9536L9.66898 27.7566L8.33105 29.2432L10.7722 31.4402C12.602 33.087 15.4007 33.0134 17.1414 31.2727L17.2071 31.207C18.1973 30.2168 19.8027 30.2168 20.7929 31.207C22.5641 32.9782 25.4359 32.9782 27.2071 31.207C28.1973 30.2168 29.8027 30.2168 30.7929 31.207L30.8587 31.2727C32.5994 33.0134 35.398 33.087 37.2278 31.4402L39.669 29.2432L38.3311 27.7566L35.8899 29.9536C34.8508 30.8889 33.2614 30.8471 32.2729 29.8585L32.2071 29.7928C30.4359 28.0215 27.5641 28.0215 25.7929 29.7928C24.8027 30.783 23.1973 30.783 22.2071 29.7928C20.4359 28.0215 17.5641 28.0215 15.7929 29.7928L15.7272 29.8585C14.7386 30.8471 13.1493 30.8889 12.1101 29.9536ZM12.017 34.1329L9.62488 32.2192L8.37549 33.781L10.7676 35.6947C12.6502 37.2007 15.3641 37.0504 17.0688 35.3457L17.2073 35.2072C18.1975 34.217 19.8029 34.217 20.7931 35.2072C22.5643 36.9785 25.4361 36.9785 27.2073 35.2072C28.1975 34.217 29.8029 34.217 30.7931 35.2072L30.9315 35.3457C32.6363 37.0504 35.3502 37.2007 37.2328 35.6947L39.6249 33.781L38.3755 32.2192L35.9834 34.1329C34.8966 35.0024 33.3299 34.9156 32.3458 33.9315L32.2073 33.793C30.4361 32.0218 27.5643 32.0218 25.7931 33.793C24.8029 34.7832 23.1975 34.7832 22.2073 33.793C20.4361 32.0218 17.5643 32.0218 15.7931 33.793L15.6546 33.9315C14.6705 34.9156 13.1038 35.0024 12.017 34.1329ZM9.62488 36.2192L12.017 38.1329C13.1038 39.0024 14.6705 38.9156 15.6546 37.9315L15.7931 37.793C17.5643 36.0218 20.4361 36.0218 22.2073 37.793C23.1975 38.7832 24.8029 38.7832 25.7931 37.793C27.5643 36.0218 30.4361 36.0218 32.2073 37.793L32.3458 37.9315C33.3299 38.9156 34.8966 39.0024 35.9834 38.1329L38.3755 36.2192L39.6249 37.781L37.2328 39.6947C35.3502 41.2007 32.6363 41.0504 30.9315 39.3457L30.7931 39.2072C29.8029 38.217 28.1975 38.217 27.2073 39.2072C25.4361 40.9785 22.5643 40.9785 20.7931 39.2072C19.8029 38.217 18.1975 38.217 17.2073 39.2072L17.0688 39.3457C15.3641 41.0504 12.6502 41.2007 10.7676 39.6947L8.37549 37.781L9.62488 36.2192Z" fill="#48484E"/>
</svg>
