<svg width="48" height="48" viewBox="0 0 48 48" fill="none" xmlns="http://www.w3.org/2000/svg">
<path fill-rule="evenodd" clip-rule="evenodd" d="M25.1541 10.0183L24 7.94092L22.8459 10.0183C21.4856 12.4669 19.4668 14.4856 17.0182 15.846L16 16.4116V21H13V16H10.5V13H8.5V16H6V21H1V41H16V41H32V41H47V21H42V16H39.5V13H37.5V16H35V21H32V16.4116L30.9818 15.846C28.5332 14.4856 26.5144 12.4669 25.1541 10.0183ZM8 21H11V18H8V21ZM6 23H3V39H16V23H13H6ZM35 23H42H45V39H32V23H35ZM40 18V21H37V18H40ZM30 39V17.5884C27.5665 16.2343 25.5082 14.306 24 11.9786C22.4918 14.306 20.4335 16.2343 18 17.5884V21V23V39H30ZM13 25H6V30H13V25ZM8 28V27H11V28H8ZM35 25H42V30H35V25ZM37 27V28H40V27H37ZM13 31H6V36H13V31ZM8 34V33H11V34H8ZM35 31H42V36H35V31ZM37 33V34H40V33H37Z" fill="#48484E"/>
<path fill-rule="evenodd" clip-rule="evenodd" d="M24 18C21.7909 18 20 19.7909 20 22V24C20 26.2091 21.7909 28 24 28C26.2091 28 28 26.2091 28 24V22C28 19.7909 26.2091 18 24 18ZM22 22C22 20.8954 22.8954 20 24 20C25.1046 20 26 20.8954 26 22V24C26 25.1046 25.1046 26 24 26C22.8954 26 22 25.1046 22 24V22ZM27 35C27 33.3431 25.6569 32 24 32C22.3431 32 21 33.3431 21 35L21 41H27L27 35ZM24 34C24.5523 34 25 34.4477 25 35L25 39H23V35C23 34.4477 23.4477 34 24 34Z" fill="#F03E58"/>
</svg>
