<svg width="48" height="48" viewBox="0 0 48 48" fill="none" xmlns="http://www.w3.org/2000/svg">
<path fill-rule="evenodd" clip-rule="evenodd" d="M29 23C30.6569 23 32 24.3431 32 26L32 32L26 32L26 26C26 24.3431 27.3431 23 29 23ZM30 26C30 25.4477 29.5523 25 29 25C28.4477 25 28 25.4477 28 26L28 30L30 30L30 26Z" fill="#F03E58"/>
<path fill-rule="evenodd" clip-rule="evenodd" d="M5.96102 15.9644L13 7L20.0389 15.9644C21.1406 17.3674 21.7605 19.0064 21.9126 20.6733L23.3052 19.2807L31.5001 11.6321L39.695 19.2807L43.7072 23.2929L42.293 24.7071L40.0001 22.4142V32H23.0001V22.4142L21.7072 23.7071L21.6788 23.6787C21.2877 25.2348 20.4749 26.7011 19.2525 27.8947C18.2964 28.8283 17.1835 29.5052 16 29.9253V27.7621C16.6684 27.4423 17.2963 27.0095 17.8552 26.4638C20.3942 23.9845 20.6575 19.9906 18.4659 17.1996L13 10.2385L7.53404 17.1996C5.34247 19.9906 5.60575 23.9845 8.14476 26.4638C9.23726 27.5305 10.5935 28.1657 11.9999 28.3691V25.5L8.3999 22.8L9.59989 21.2L11.9999 23V17H13.9999V19.5858L15.2928 18.2929L16.707 19.7071L13.9999 22.4142V28.3691L14 28.3691V30.3853L13.9999 30.3853V36.0449C14.1023 35.9696 14.2003 35.8856 14.293 35.793C16.0642 34.0217 18.9359 34.0217 20.7072 35.793C21.6974 36.7832 23.3028 36.7832 24.293 35.793C26.0642 34.0217 28.9359 34.0217 30.7072 35.793C31.6974 36.7832 33.3028 36.7832 34.293 35.793L36.793 33.293L38.2072 34.7072L35.7072 37.2072C33.9359 38.9784 31.0642 38.9784 29.293 37.2072C28.3028 36.217 26.6974 36.217 25.7072 37.2072C23.9359 38.9784 21.0642 38.9784 19.293 37.2072C18.3028 36.217 16.6974 36.217 15.7072 37.2072C13.9359 38.9784 11.0642 38.9784 9.29297 37.2072L6.79297 34.7072L8.20718 33.293L10.7072 35.793C11.0744 36.1602 11.5262 36.3912 11.9999 36.4861V30.3853C10.0865 30.1714 8.22879 29.3411 6.74749 27.8947C3.4778 24.702 3.13874 19.5587 5.96102 15.9644ZM25.0001 30V20.4345L31.5001 14.3679L38.0001 20.4345V30H25.0001ZM10.5168 40.1329L8.12463 38.2192L6.87524 39.781L9.26736 41.6947C11.1499 43.2007 13.8638 43.0504 15.5686 41.3457L15.707 41.2072C16.6972 40.217 18.3026 40.217 19.2928 41.2072C21.0641 42.9785 23.9358 42.9785 25.707 41.2072C26.6972 40.217 28.3026 40.217 29.2928 41.2072L29.4313 41.3457C31.136 43.0504 33.85 43.2007 35.7325 41.6947L38.1246 39.781L36.8752 38.2192L34.4831 40.1329C33.3963 41.0024 31.8296 40.9156 30.8455 39.9315L30.707 39.793C28.9358 38.0218 26.0641 38.0218 24.2928 39.793C23.3026 40.7832 21.6972 40.7832 20.707 39.793C18.9358 38.0218 16.0641 38.0218 14.2928 39.793L14.1544 39.9315C13.1702 40.9156 11.6035 41.0024 10.5168 40.1329Z" fill="#48484E"/>
</svg>
