<svg width="112" height="44" viewBox="0 0 112 44" fill="none" xmlns="http://www.w3.org/2000/svg">
<path d="M7.95881 37.7197C7.17583 37.7197 6.41044 37.4757 5.75942 37.0186C5.10839 36.5615 4.60098 35.9119 4.30135 35.1517C4.00171 34.3916 3.92332 33.5552 4.07607 32.7483C4.22882 31.9414 4.60586 31.2001 5.15951 30.6184C5.71316 30.0366 6.41855 29.6404 7.18649 29.4799C7.95442 29.3194 8.75041 29.4018 9.47378 29.7166C10.1972 30.0315 10.8154 30.5647 11.2504 31.2487C11.6854 31.9328 11.9176 32.7371 11.9176 33.5598C11.9244 34.1081 11.8267 34.6522 11.6301 35.1602C11.4336 35.6681 11.1423 36.1295 10.7733 36.5172C10.4043 36.9049 9.96518 37.2111 9.4818 37.4176C8.99842 37.6241 8.48058 37.7268 7.95881 37.7197ZM7.95881 30.8273C7.26979 30.8273 6.60898 31.1149 6.12177 31.6269C5.63456 32.1388 5.36084 32.8332 5.36084 33.5572C5.36084 34.2812 5.63456 34.9756 6.12177 35.4875C6.60898 35.9995 7.26979 36.2871 7.95881 36.2871C8.29678 36.2937 8.63248 36.228 8.94549 36.0939C9.25849 35.9597 9.54224 35.7601 9.77947 35.5071C10.0167 35.254 10.2024 34.9529 10.3254 34.6221C10.4483 34.2912 10.5058 33.9375 10.4945 33.5825C10.5033 33.2259 10.4444 32.871 10.3212 32.5387C10.1979 32.2063 10.0128 31.9031 9.77671 31.6468C9.54059 31.3904 9.2582 31.1862 8.94606 31.0459C8.63392 30.9057 8.29829 30.8322 7.95881 30.8299V30.8273Z" fill="#F03E58"/>
<path d="M14.7403 32.8669V37.5904H13.3587V32.8669H12.6787V31.5451H13.3587V29.5306H14.7403V31.5451H15.5648V32.8669H14.7403Z" fill="#F03E58"/>
<path d="M20.9504 37.5881V36.8081C20.7256 37.1085 20.4368 37.3493 20.1073 37.5112C19.7778 37.673 19.4168 37.7513 19.0532 37.7399C18.6636 37.7465 18.2769 37.6689 17.917 37.512C17.5572 37.3551 17.2318 37.1222 16.9611 36.8277C16.6904 36.5333 16.4802 36.1835 16.3435 35.8001C16.2068 35.4167 16.1464 35.0079 16.1663 34.599C16.145 34.1841 16.2053 33.7691 16.3436 33.3797C16.4818 32.9904 16.6949 32.6353 16.9697 32.3364C17.2444 32.0376 17.5748 31.8015 17.9403 31.6429C18.3058 31.4843 18.6985 31.4065 19.0939 31.4146C19.4583 31.3907 19.8224 31.466 20.151 31.633C20.4797 31.8 20.7619 32.0532 20.9703 32.3682V31.5446H22.2282V37.5645H20.9496L20.9504 37.5881ZM19.2392 32.7355C19.0087 32.7334 18.7803 32.7817 18.5686 32.8774C18.3569 32.9731 18.1664 33.1141 18.0093 33.2913C17.8523 33.4686 17.7321 33.6783 17.6563 33.907C17.5806 34.1358 17.551 34.3786 17.5695 34.62C17.5583 34.8563 17.5944 35.0926 17.6754 35.3134C17.7564 35.5342 17.8805 35.7348 18.0398 35.9021C18.199 36.0695 18.3899 36.1999 18.6 36.285C18.8102 36.3701 19.035 36.408 19.2599 36.3963C19.4838 36.4076 19.7075 36.3693 19.9164 36.2837C20.1252 36.1982 20.3146 36.0673 20.4721 35.8998C20.6296 35.7322 20.7518 35.5316 20.8306 35.3111C20.9095 35.0906 20.9432 34.8551 20.9296 34.62C20.9425 34.3781 20.9083 34.1359 20.8293 33.9083C20.7502 33.6807 20.6278 33.4724 20.4697 33.2961C20.3115 33.1198 20.1209 32.9792 19.9093 32.8828C19.6978 32.7864 19.4698 32.7363 19.2392 32.7355Z" fill="#F03E58"/>
<path d="M26.3068 39.9938C25.6882 40.0349 25.0726 39.8738 24.5446 39.5324C24.0167 39.1911 23.6023 38.6863 23.3584 38.0875H24.9252C25.0993 38.3085 25.321 38.4828 25.5719 38.5958C25.8229 38.7089 26.0959 38.7574 26.3682 38.7375C27.3995 38.7375 27.9142 38.1093 27.9765 36.8093C27.7607 37.1147 27.4765 37.3595 27.1493 37.522C26.822 37.6845 26.4616 37.7598 26.1001 37.7411C25.3352 37.6894 24.6177 37.3336 24.0934 36.7461C23.5691 36.1586 23.2773 35.3834 23.2773 34.578C23.2773 33.7726 23.5691 32.9975 24.0934 32.41C24.6177 31.8224 25.3352 31.4667 26.1001 31.415C26.4599 31.393 26.8194 31.4645 27.1467 31.6232C27.4739 31.7819 27.759 32.0229 27.9765 32.3249V31.545H29.2958V36.4412C29.2759 39.0184 28.0803 39.9938 26.3068 39.9938ZM26.2454 32.7359C26.0218 32.7329 25.8001 32.78 25.5951 32.8739C25.3901 32.9678 25.2065 33.1064 25.0564 33.2806C24.9063 33.4548 24.7931 33.6605 24.7244 33.8841C24.6557 34.1077 24.633 34.3441 24.6578 34.5776C24.6353 34.8104 24.6606 35.0455 24.732 35.2671C24.8035 35.4886 24.9193 35.6915 25.0718 35.862C25.2243 36.0325 25.4098 36.1666 25.6158 36.2552C25.8219 36.3438 26.0436 36.3849 26.2661 36.3757C26.4893 36.3842 26.7117 36.3429 26.9185 36.2543C27.1254 36.1658 27.312 36.0321 27.466 35.8621C27.6199 35.6921 27.7378 35.4897 27.8118 35.2683C27.8858 35.0469 27.9142 34.8114 27.8951 34.5776C27.9138 34.34 27.8847 34.1008 27.8098 33.8757C27.7349 33.6506 27.6158 33.4446 27.4603 33.271C27.3047 33.0973 27.1162 32.9599 26.9069 32.8678C26.6976 32.7756 26.4722 32.7306 26.2454 32.7359Z" fill="#F03E58"/>
<path d="M34.3061 37.589V34.5128C34.3061 33.2564 33.9972 32.7574 33.1927 32.7574C32.4089 32.7574 31.9763 33.2119 31.9763 34.5337V37.5873H30.5947V29.5511H31.9763V31.9774C32.3741 31.5935 32.9004 31.3908 33.4401 31.4138C34.8217 31.4138 35.6877 32.2156 35.6877 34.1873V37.5899L34.3061 37.589Z" fill="#F03E58"/>
<path d="M41.6262 37.5881V36.8081C41.4014 37.1085 41.1126 37.3493 40.7831 37.5112C40.4536 37.673 40.0925 37.7513 39.729 37.7399C39.3394 37.7465 38.9527 37.6689 38.5928 37.512C38.2329 37.3551 37.9076 37.1222 37.6369 36.8277C37.3662 36.5333 37.156 36.1835 37.0193 35.8001C36.8825 35.4167 36.8222 35.0079 36.8421 34.599C36.8208 34.1841 36.8811 33.7691 37.0193 33.3797C37.1576 32.9904 37.3707 32.6353 37.6454 32.3364C37.9202 32.0376 38.2506 31.8015 38.6161 31.6429C38.9816 31.4843 39.3743 31.4065 39.7697 31.4146C40.1341 31.3907 40.4981 31.466 40.8268 31.633C41.1555 31.8 41.4377 32.0532 41.6461 32.3682V31.5446H42.904V37.5645H41.6254L41.6262 37.5881ZM39.8942 32.7346C39.6637 32.7325 39.4354 32.7808 39.2236 32.8765C39.0119 32.9722 38.8214 33.1132 38.6644 33.2904C38.5073 33.4677 38.3871 33.6774 38.3114 33.9061C38.2356 34.1349 38.206 34.3777 38.2245 34.6191C38.2133 34.8555 38.2494 35.0917 38.3304 35.3125C38.4114 35.5334 38.5355 35.7339 38.6948 35.9013C38.854 36.0686 39.0449 36.199 39.2551 36.2842C39.4652 36.3693 39.69 36.4072 39.915 36.3954C40.1389 36.4068 40.3625 36.3684 40.5714 36.2828C40.7803 36.1973 40.9696 36.0665 41.1271 35.8989C41.2847 35.7313 41.4068 35.5307 41.4857 35.3102C41.5645 35.0897 41.5982 34.8542 41.5847 34.6191C41.601 34.3764 41.5692 34.1328 41.4914 33.9036C41.4136 33.6745 41.2914 33.4648 41.1325 33.2878C40.9737 33.1108 40.7816 32.9703 40.5685 32.8752C40.3553 32.7802 40.1257 32.7326 39.8942 32.7355V32.7346Z" fill="#F03E58"/>
<path d="M47.5258 37.589L45.5671 34.7728V37.589H44.1855V29.5511H45.5671V34.4046L47.4021 31.5665H49.0519L47.011 34.5128L49.4031 37.589H47.5258Z" fill="#F03E58"/>
<path d="M50.6357 37.59V36.2036H52.0173V37.59H50.6357Z" fill="#F03E58"/>
<path d="M56.4353 37.7196C56.0359 37.724 55.6396 37.6457 55.269 37.489C54.8984 37.3324 54.5608 37.1005 54.2755 36.8068C53.9902 36.513 53.7628 36.163 53.6063 35.7768C53.4498 35.3906 53.3672 34.9759 53.3633 34.5561C53.3713 33.8037 53.6316 33.0783 54.0983 32.5075C54.565 31.9368 55.2083 31.5572 55.9151 31.4356C56.6218 31.314 57.3467 31.4581 57.9623 31.8427C58.5779 32.2272 59.0447 32.8275 59.2807 33.538H57.7347C57.6142 33.2766 57.4224 33.0588 57.1838 32.9122C56.9452 32.7655 56.6706 32.6967 56.3947 32.7144C56.1714 32.7126 55.9503 32.7594 55.745 32.8516C55.5398 32.9439 55.3549 33.0797 55.202 33.2506C55.049 33.4215 54.9313 33.6237 54.8562 33.8446C54.7811 34.0655 54.7503 34.3003 54.7656 34.5343C54.7545 34.7719 54.7894 35.0094 54.8683 35.2324C54.9472 35.4554 55.0684 35.6592 55.2246 35.8315C55.3808 36.0037 55.5686 36.1408 55.7767 36.2344C55.9849 36.328 56.2089 36.3762 56.4353 36.3761C56.7021 36.3868 56.9662 36.317 57.1963 36.1749C57.4264 36.0328 57.613 35.8244 57.7339 35.5743H59.2799C59.0913 36.2077 58.7119 36.7595 58.1988 37.1464C57.6857 37.5334 57.0668 37.7346 56.4353 37.7196Z" fill="#F03E58"/>
<path d="M63.2968 37.719C62.7014 37.7105 62.1218 37.5167 61.6312 37.162C61.1407 36.8073 60.7612 36.3078 60.5409 35.7265C60.3205 35.1452 60.2692 34.5083 60.3933 33.8964C60.5174 33.2844 60.8114 32.7249 61.2382 32.2885C61.665 31.8522 62.2053 31.5586 62.7908 31.445C63.3764 31.3313 63.9808 31.4026 64.5278 31.6499C65.0748 31.8973 65.5397 32.3095 65.8637 32.8344C66.1877 33.3594 66.3563 33.9735 66.3481 34.5992C66.3305 35.4358 66.0008 36.2316 65.43 36.8152C64.8593 37.3988 64.0932 37.7234 63.2968 37.719ZM63.2968 32.7356C62.9514 32.7222 62.6101 32.8176 62.3167 33.0095C62.0233 33.2015 61.7911 33.4812 61.6501 33.8127C61.5091 34.1443 61.4656 34.5126 61.5252 34.8703C61.5849 35.2281 61.7449 35.5589 61.9848 35.8204C62.2246 36.0818 62.5334 36.262 62.8715 36.3377C63.2095 36.4134 63.5614 36.3812 63.8819 36.2453C64.2023 36.1093 64.4769 35.8758 64.6701 35.5747C64.8634 35.2736 64.9666 34.9187 64.9665 34.5555C64.9714 34.3207 64.9319 34.0871 64.8505 33.8683C64.769 33.6496 64.6472 33.4499 64.492 33.2808C64.3368 33.1117 64.1513 32.9765 63.9462 32.8831C63.741 32.7897 63.5204 32.7399 63.2968 32.7365V32.7356Z" fill="#F03E58"/>
<path d="M74.6192 37.5871V34.2718C74.6192 33.0582 74.1858 32.7336 73.5473 32.7336C72.7843 32.7336 72.3924 33.1699 72.3924 34.5972V37.5635H71.0108V34.2482C71.0108 33.0564 70.6189 32.7101 69.8974 32.7101C69.0928 32.7101 68.7839 33.1646 68.7839 34.5736V37.54H67.4023V31.5384H68.6602V32.102C68.8314 31.8623 69.0569 31.6714 69.3162 31.5467C69.5754 31.4219 69.8603 31.3671 70.1448 31.3874C70.4813 31.3607 70.8183 31.4339 71.1172 31.5986C71.4161 31.7634 71.6649 32.0131 71.8352 32.3192C72.0412 32.0136 72.3175 31.7678 72.6384 31.6049C72.9593 31.4419 73.3143 31.3671 73.6702 31.3874C75.1755 31.3874 76 32.2756 76 34.0737V37.5635H74.6184L74.6192 37.5871Z" fill="#F03E58"/>
<path d="M59.4597 27.3991C58.4948 27.4037 57.5309 27.3314 56.5764 27.1827C55.8673 27.0866 55.1785 26.8669 54.538 26.5327C54.0363 26.2742 53.5883 25.9132 53.2204 25.4709C52.8779 25.0043 52.6196 24.4755 52.4583 23.9109C52.2675 23.256 52.1501 22.5799 52.1083 21.8964C52.0669 21.1382 52.0254 20.3364 52.0254 19.4264V4.23833H55.8143V19.4482C55.803 20.1354 55.8307 20.8226 55.8972 21.5064C55.926 21.9465 56.0761 22.3682 56.3292 22.72C56.6158 23.0412 57.0038 23.2415 57.4206 23.2836C58.089 23.3838 58.7639 23.4272 59.439 23.4136V27.3999L59.4597 27.3991Z" fill="#48484E"/>
<path d="M75.9969 27.1607H72.208V4H75.9969V27.1607Z" fill="#48484E"/>
<path d="M34.6033 27.3992H34.3977C33.3969 27.3441 32.4229 27.0396 31.5558 26.511C30.6505 25.9784 29.8473 25.273 29.1874 24.431C28.2197 26.2946 26.4898 27.2474 24.0186 27.2474H10.1194C7.40112 27.2474 5.56846 26.0774 4.64135 23.7156C4.18549 22.4807 3.96868 21.1625 4.00365 19.8383V17.2601H7.7519V19.6438C7.67705 20.5639 7.87088 21.4862 8.3075 22.2873C8.511 22.5603 8.77531 22.7762 9.07703 22.9161C9.37875 23.0559 9.70858 23.1154 10.0373 23.0892H23.8967C24.398 23.1151 24.8997 23.0493 25.3795 22.8946C25.6629 22.809 25.919 22.6444 26.1208 22.4182C26.2589 22.1843 26.3302 21.9136 26.3265 21.6382V21.53C26.3191 21.4847 26.3051 21.4409 26.285 21.4C26.2643 21.3564 26.2435 21.2919 26.2021 21.2055C26.1814 21.1182 26.1192 21.0755 26.0993 20.9891C26.0467 20.9047 25.9985 20.8173 25.955 20.7274C25.9135 20.6401 25.8314 20.5328 25.77 20.4028C25.6871 20.2946 25.6257 20.1864 25.5437 20.0538C25.4607 19.9456 25.3587 19.8156 25.2551 19.6856C25.1514 19.5556 25.0494 19.4239 24.9234 19.2738L21.0109 14.572C20.8874 14.4202 20.7621 14.2684 20.661 14.1358C20.5598 14.0032 20.4553 13.8741 20.3525 13.724C20.2497 13.594 20.1676 13.4858 20.0639 13.375C19.981 13.2668 19.9196 13.1586 19.8375 13.0505C19.5022 12.5533 19.3488 11.9454 19.4055 11.3387C19.4211 10.6315 19.6361 9.94515 20.0233 9.36686C20.3831 8.81731 20.9038 8.40647 21.506 8.19687L34.6033 4.23845V8.39841L23.5451 11.5829L31.4745 21.1383C31.7349 21.4624 32.017 21.7665 32.3187 22.0483C32.5382 22.2864 32.7876 22.4919 33.0601 22.659C33.4584 22.9062 33.8793 23.1108 34.3164 23.2698C34.4705 23.322 34.6291 23.3582 34.7899 23.3779H35.1009C35.6158 23.3779 35.5329 23.4652 35.6813 23.6397C35.9758 24.0424 36.1285 24.54 36.1134 25.0479V25.1997C36.1318 25.708 35.9788 26.2068 35.6813 26.6078C35.3496 27.0528 35.1199 27.3992 34.6033 27.3992Z" fill="#48484E"/>
<path d="M68.2724 16.3068H64.5863V20.7913V20.9859C64.6064 21.4482 64.5211 21.9089 64.3376 22.3295C64.1869 22.6147 63.9754 22.8593 63.7198 23.0441C63.514 23.1902 63.2834 23.2933 63.0406 23.3477C62.8142 23.3695 62.626 23.3913 62.5049 23.3913H59.0469V27.3785H62.4244C63.1322 27.376 63.8347 27.2516 64.5042 27.0103C65.1936 26.7485 65.8296 26.3515 66.3784 25.8403C66.9627 25.2832 67.4202 24.5946 67.7168 23.8258C68.0805 22.9221 68.2561 21.9469 68.2317 20.9658V20.7713L68.2724 16.3068Z" fill="#48484E"/>
<path d="M49.8258 19.7299C49.7843 19.2535 49.7229 18.7763 49.64 18.2781C49.5571 17.7799 49.4957 17.2817 49.3912 16.8045C49.3083 16.3281 49.2055 15.8727 49.1425 15.4609C49.101 15.2227 49.0189 15.0055 48.9982 14.8109C48.9692 14.6275 48.9279 14.4464 48.8746 14.2691C48.6986 13.6504 48.4568 13.0545 48.154 12.4927C47.8628 11.9101 47.4638 11.3945 46.9806 10.9764C46.5024 10.5238 45.9514 10.1642 45.3536 9.91456C44.6639 9.63058 43.9321 9.47671 43.1917 9.46C42.334 9.41206 41.4766 9.56091 40.679 9.89624C39.9349 10.2316 39.2519 10.7007 38.6606 11.2826C38.0879 11.8898 37.6349 12.61 37.3275 13.4019C37.0201 14.1938 36.8644 15.0418 36.8694 15.8971C36.8426 16.9107 37.0549 17.9155 37.4872 18.8217C37.8822 19.6268 38.4808 20.3016 39.2171 20.7717C40.0598 21.2782 40.9901 21.6024 41.9536 21.7253C43.3532 21.8593 44.7629 21.823 46.1546 21.6171C46.1237 21.845 46.054 22.0651 45.949 22.2671C45.7983 22.5523 45.5869 22.7969 45.3312 22.9816C45.1255 23.1278 44.8949 23.2309 44.652 23.2853C44.4256 23.3071 44.2374 23.3289 44.1163 23.3289H34.6279V27.3152H44.0185C44.7262 27.3127 45.4287 27.1884 46.0982 26.947C46.7877 26.6852 47.4236 26.2882 47.9724 25.777C48.5568 25.2199 49.0142 24.5313 49.3108 23.7625C49.6745 22.8588 49.8501 21.8836 49.8258 20.9025C49.8785 20.5136 49.8785 20.1188 49.8258 19.7299ZM41.6095 18.0181C41.2053 17.8512 40.8619 17.5536 40.6288 17.1682C40.3957 16.7828 40.285 16.3295 40.3125 15.8736C40.3074 15.4921 40.3848 15.1144 40.5389 14.769C40.6802 14.4468 40.9006 14.17 41.1774 13.9672C41.4419 13.7437 41.7522 13.588 42.0838 13.5127C42.4349 13.4299 42.7954 13.4005 43.1544 13.4254C43.6603 13.4506 44.1447 13.6485 44.5343 13.989C44.8084 14.2253 45.0209 14.5309 45.1521 14.8772C45.1521 14.899 45.2964 15.3536 45.2964 15.3754C45.3378 15.57 45.4813 16.1772 45.5451 16.5236L45.8536 18.1917C44.1644 18.2127 42.4329 18.3217 41.6086 18.0181H41.6095Z" fill="#48484E"/>
<path d="M39.5065 7.92109C39.3107 7.71686 39.1553 7.47386 39.0493 7.20611C38.9433 6.93836 38.8887 6.65117 38.8887 6.36111C38.8887 6.07105 38.9433 5.78386 39.0493 5.51611C39.1553 5.24836 39.3107 5.00536 39.5065 4.80112C39.6972 4.59034 39.9275 4.42367 40.1828 4.31176C40.4381 4.19984 40.7127 4.14514 40.9892 4.15113C41.1779 4.14496 41.3661 4.17451 41.5448 4.23838C41.7231 4.29161 41.8957 4.36412 42.0598 4.45475C42.2124 4.55879 42.3569 4.67549 42.4918 4.80374C42.6858 5.00033 42.8398 5.2363 42.9446 5.49736C43.0439 5.75918 43.093 6.03911 43.0889 6.32098V6.51554C43.0901 6.58107 43.0832 6.64648 43.0682 6.7101C43.0682 6.75372 43.0474 6.81829 43.0474 6.86191C43.0433 6.9149 43.0292 6.96651 43.006 7.01372C42.9852 7.05734 42.9852 7.12191 42.9645 7.16553C42.9448 7.22052 42.9168 7.27179 42.8816 7.31734C42.8609 7.36097 42.8401 7.42553 42.7987 7.44734C42.7784 7.4954 42.7503 7.53939 42.7157 7.57734C42.6946 7.6305 42.6587 7.67577 42.6129 7.70734L42.4893 7.83734C42.2987 8.04812 42.0684 8.21479 41.8131 8.3267C41.5578 8.43862 41.2831 8.49332 41.0066 8.48733C40.7317 8.52843 40.4513 8.49833 40.1899 8.39966C39.9285 8.30099 39.6939 8.13672 39.5065 7.92109Z" fill="#48484E"/>
<path d="M43.0666 6.38306C43.0628 6.09243 43.1157 5.80408 43.222 5.53578C43.3282 5.26748 43.4856 5.02492 43.6844 4.82308C43.8751 4.61229 44.1054 4.44562 44.3607 4.33371C44.616 4.2218 44.8906 4.16709 45.1671 4.17308C45.4482 4.16884 45.7276 4.22035 45.9906 4.32489C46.2477 4.42922 46.4799 4.59186 46.6706 4.80126C46.8601 5.00179 47.0135 5.23679 47.1233 5.49488C47.2226 5.75671 47.2717 6.03663 47.2676 6.3185C47.2734 6.6144 47.2244 6.90866 47.1233 7.18487C47.0186 7.44592 46.8645 7.6819 46.6706 7.87849C46.5409 8.0133 46.3958 8.13054 46.2385 8.22748C46.0905 8.32145 45.9313 8.39421 45.765 8.44385C45.5837 8.49559 45.3972 8.52487 45.2094 8.5311C44.9283 8.53533 44.6489 8.48383 44.3859 8.37929C44.1318 8.26942 43.9009 8.10749 43.7068 7.90291C43.5172 7.70241 43.3638 7.4674 43.254 7.2093C43.1289 6.95392 43.0645 6.67038 43.0666 6.38306Z" fill="#48484E"/>
<path d="M60.4893 12.3192C60.289 12.1186 60.1306 11.8763 60.0242 11.6077C59.9178 11.3391 59.8658 11.0501 59.8715 10.7592C59.8677 10.4686 59.9206 10.1802 60.0268 9.91187C60.1331 9.64357 60.2905 9.40102 60.4893 9.1992C60.68 8.98842 60.9103 8.82175 61.1656 8.70984C61.4209 8.59792 61.6955 8.54322 61.972 8.54921C62.161 8.54294 62.3495 8.57249 62.5285 8.63646C62.7068 8.68969 62.8793 8.7622 63.0434 8.85283C63.1963 8.95684 63.3411 9.07355 63.4763 9.20182C63.6703 9.39841 63.8243 9.63438 63.9291 9.89544C64.0284 10.1573 64.0774 10.4372 64.0734 10.7191V10.9136C64.0756 10.9792 64.0686 11.0447 64.0526 11.1082C64.0526 11.1518 64.0319 11.2164 64.0319 11.26C64.0278 11.313 64.0137 11.3646 63.9905 11.4118C63.9697 11.4554 63.9697 11.52 63.949 11.5636C63.9293 11.6186 63.9013 11.6699 63.866 11.7154C63.8453 11.759 63.8246 11.8236 63.7831 11.8454C63.7629 11.8935 63.7348 11.9375 63.7002 11.9754C63.679 12.0286 63.6432 12.0739 63.5974 12.1054L63.4738 12.2354C63.2832 12.4462 63.0528 12.6129 62.7976 12.7248C62.5423 12.8367 62.2676 12.8914 61.9911 12.8854C61.7157 12.9324 61.4334 12.9051 61.1708 12.806C60.9082 12.707 60.6737 12.5395 60.4893 12.3192Z" fill="#48484E"/>
<path d="M64.0127 10.7598C64.0089 10.4692 64.0618 10.1808 64.168 9.91249C64.2743 9.64418 64.4317 9.40163 64.6305 9.19982C64.8211 8.98903 65.0515 8.82236 65.3067 8.71045C65.562 8.59854 65.8367 8.54383 66.1132 8.54982C66.3943 8.54559 66.6737 8.59709 66.9367 8.70163C67.1909 8.81138 67.4218 8.97332 67.6158 9.17801C67.8054 9.37852 67.9588 9.61352 68.0686 9.87162C68.1679 10.1335 68.2169 10.4134 68.2129 10.6952C68.2187 10.9911 68.1697 11.2854 68.0686 11.5616C67.9638 11.8227 67.8098 12.0586 67.6158 12.2552C67.4862 12.3901 67.3411 12.5073 67.1838 12.6042C67.0358 12.6982 66.8766 12.771 66.7103 12.8206C66.5289 12.8723 66.3425 12.9016 66.1547 12.9078C65.8736 12.9121 65.5942 12.8606 65.3312 12.756C65.077 12.6463 64.8461 12.4843 64.6521 12.2797C64.4625 12.0791 64.3091 11.8441 64.1993 11.586C64.0673 11.3334 64.0029 11.0479 64.0127 10.7598Z" fill="#48484E"/>
<path d="M95.8733 0.0191473C87.8712 0.383327 81.435 7.17351 81.2081 15.4468C81.1081 18.6366 81.9548 21.7874 83.6483 24.5269L96.3758 43.8832C96.4007 43.9191 96.4344 43.9486 96.4738 43.969C96.5133 43.9893 96.5574 44 96.6022 44C96.6469 44 96.691 43.9893 96.7305 43.969C96.77 43.9486 96.8036 43.9191 96.8286 43.8832L109.558 24.5269C111.201 21.9372 112.047 18.9492 111.998 15.9119C111.997 6.86122 104.703 -0.42335 95.8733 0.0191473ZM96.6027 26.7384C90.7925 26.7384 86.0885 21.8729 86.0885 15.8629C86.0885 9.85297 90.7925 4.98746 96.6027 4.98746C102.413 4.98746 107.117 9.85297 107.117 15.8629C107.117 21.8729 102.414 26.7384 96.6037 26.7384H96.6027Z" fill="#F03E58"/>
<path d="M98.9516 7.86664L94.1736 8.96016C94.1133 8.97556 94.0602 9.0105 94.0234 9.05915C93.9865 9.10779 93.968 9.16719 93.971 9.22742V22.1607C93.9767 22.2188 93.9985 22.2743 94.0341 22.3213C94.0698 22.3684 94.118 22.4052 94.1736 22.428L98.9526 23.4735C98.9931 23.4826 99.0353 23.4823 99.0757 23.4729C99.1161 23.4635 99.1537 23.445 99.1855 23.4191C99.2172 23.3931 99.2423 23.3604 99.2587 23.3234C99.275 23.2865 99.2823 23.2464 99.2798 23.2062V8.12999C99.2799 8.0906 99.271 8.05166 99.2537 8.01598C99.2365 7.98029 99.2112 7.94874 99.1799 7.92357C99.1485 7.89841 99.1118 7.88025 99.0723 7.87041C99.0329 7.86057 98.9916 7.85928 98.9516 7.86664Z" fill="#F03E58"/>
</svg>
